<?xml version="1.0" standalone="no"?>
<!DOCTYPE svg PUBLIC "-//W3C//DTD SVG 20010904//EN"
 "http://www.w3.org/TR/2001/REC-SVG-20010904/DTD/svg10.dtd">
<svg version="1.0" xmlns="http://www.w3.org/2000/svg"
 width="3008.000000pt" height="3008.000000pt" viewBox="0 0 3008.000000 3008.000000"
 preserveAspectRatio="xMidYMid meet">
<metadata>
Created by potrace 1.14, written by Peter Selinger 2001-2017
</metadata>
<g transform="translate(0.000000,3008.000000) scale(0.100000,-0.100000)"
fill="#000000" stroke="none">
<path d="M15598 25275 c-2 -2 -46 -6 -98 -9 -224 -15 -541 -57 -665 -90 -5 -2
-28 -6 -50 -11 -448 -90 -1002 -308 -1433 -566 -487 -291 -843 -594 -1257
-1069 -129 -149 -383 -504 -478 -670 -92 -160 -178 -330 -255 -500 -106 -238
-265 -716 -298 -900 -3 -14 -11 -50 -19 -80 -22 -88 -68 -367 -80 -485 -3 -33
-8 -73 -10 -90 -23 -154 -23 -719 -1 -890 3 -16 7 -61 11 -100 4 -38 8 -81 10
-95 2 -14 13 -88 25 -165 11 -77 29 -180 39 -228 l18 -88 -131 -88 c-168 -112
-181 -122 -300 -210 -98 -73 -378 -296 -440 -350 -17 -16 -76 -68 -131 -117
-101 -89 -433 -418 -535 -529 -30 -33 -108 -123 -174 -200 -65 -77 -130 -153
-144 -170 -133 -152 -486 -659 -634 -910 -66 -112 -82 -139 -170 -300 -87
-158 -257 -512 -309 -642 -15 -39 -37 -91 -48 -115 -62 -136 -219 -597 -277
-813 -40 -145 -82 -310 -89 -340 -2 -11 -13 -60 -24 -110 -21 -93 -68 -344
-77 -405 -4 -33 -12 -81 -20 -125 -2 -11 -8 -60 -14 -110 -6 -49 -13 -103 -15
-120 -2 -16 -7 -55 -9 -85 -9 -103 -17 -185 -21 -225 -20 -197 -26 -794 -11
-1032 10 -167 23 -336 30 -393 2 -14 6 -54 10 -90 4 -36 12 -99 17 -140 16
-111 16 -111 23 -160 3 -25 11 -72 17 -105 7 -33 13 -69 14 -81 2 -11 8 -45
14 -75 6 -30 13 -65 15 -79 12 -68 80 -364 96 -420 5 -19 30 -108 55 -197 25
-89 51 -179 58 -200 8 -21 21 -60 30 -88 9 -27 38 -113 66 -190 144 -409 223
-557 381 -716 137 -139 264 -199 406 -194 186 6 337 136 383 329 18 75 15 211
-9 316 -30 139 -45 181 -150 415 -193 431 -349 923 -445 1400 -26 132 -45 234
-51 279 -2 15 -6 35 -8 45 -3 9 -8 45 -11 80 -3 36 -8 67 -10 70 -2 4 -6 36
-9 71 -3 36 -8 74 -10 85 -2 11 -7 65 -11 120 -4 55 -9 102 -10 105 -7 12 -19
362 -19 560 0 199 9 439 19 535 2 22 7 69 10 105 10 116 27 259 40 340 3 14 9
59 15 101 6 41 13 86 15 100 3 13 14 71 25 129 25 134 25 132 44 211 8 37 17
78 20 90 17 80 59 235 114 419 60 201 194 562 277 745 12 28 35 79 50 115 92
211 335 657 466 853 33 49 59 90 59 93 0 9 264 381 280 394 3 3 17 21 30 40
25 35 46 63 65 84 6 6 30 36 54 66 144 184 533 597 731 775 206 186 547 458
561 449 5 -3 9 -11 9 -18 0 -45 225 -539 330 -726 46 -81 144 -244 150 -250 3
-3 36 -52 74 -110 116 -176 301 -416 441 -570 57 -63 331 -338 385 -386 39
-35 205 -174 265 -222 33 -26 275 -202 279 -202 2 0 50 -31 107 -68 303 -198
609 -351 1012 -503 214 -81 646 -200 817 -225 19 -3 41 -7 48 -9 12 -4 82 -16
177 -30 22 -4 51 -8 64 -10 12 -2 60 -7 105 -11 44 -3 97 -8 116 -10 229 -21
772 -22 910 0 14 2 57 7 95 10 95 9 134 14 245 32 135 21 142 22 275 51 66 14
130 27 142 29 12 2 33 8 45 13 13 5 28 9 33 10 46 8 309 86 425 127 124 43
348 134 456 184 403 188 695 475 831 815 35 87 44 118 59 195 48 247 -10 494
-162 691 -145 189 -295 281 -566 346 -50 11 -297 10 -378 -2 -193 -29 -369
-89 -554 -188 -270 -143 -402 -202 -608 -270 -98 -33 -287 -83 -348 -93 -14
-2 -34 -6 -46 -9 -12 -3 -39 -7 -60 -10 -21 -3 -44 -8 -51 -10 -7 -2 -45 -7
-85 -11 -40 -3 -75 -8 -78 -10 -10 -5 -252 -17 -355 -17 -172 -1 -330 11 -480
35 -38 6 -79 12 -90 13 -101 10 -508 119 -610 164 -11 5 -60 26 -110 46 -80
33 -317 152 -402 201 -124 73 -346 224 -373 254 -3 3 -30 25 -60 50 -168 136
-357 332 -499 515 -34 44 -65 85 -69 90 -5 6 -31 44 -59 86 -183 271 -332 574
-433 880 -36 109 -92 323 -105 399 -3 19 -8 42 -10 50 -9 34 -33 209 -42 310
-15 169 -7 688 12 720 1 3 6 32 9 65 24 215 126 588 237 856 136 332 332 650
578 939 75 88 300 313 386 386 39 32 72 62 75 65 3 3 32 25 65 49 33 24 62 46
65 50 13 15 256 174 350 228 161 92 507 250 587 267 10 2 52 15 93 30 65 22
274 78 343 91 12 2 33 6 47 9 40 9 191 34 245 40 28 3 61 8 75 10 117 20 536
27 700 11 47 -4 103 -9 125 -11 41 -4 113 -14 145 -20 9 -2 35 -6 56 -9 236
-37 485 -108 755 -216 199 -80 244 -90 359 -86 113 5 183 28 282 93 318 209
307 689 -21 900 -75 48 -288 150 -436 208 -66 25 -131 51 -145 57 -48 20 -271
91 -355 113 -116 31 -221 56 -245 60 -8 2 -46 10 -85 18 -38 9 -90 18 -115 22
-25 3 -63 10 -85 15 -22 4 -69 11 -105 15 -36 4 -72 9 -80 10 -8 1 -49 6 -91
9 -42 4 -96 10 -120 12 -49 5 -596 13 -601 9z"/>
<path d="M20473 23029 c-240 -29 -445 -209 -482 -424 -20 -116 -2 -188 83
-339 80 -141 155 -301 213 -451 31 -81 99 -276 108 -315 49 -193 75 -301 79
-325 2 -16 11 -73 20 -125 8 -52 18 -117 21 -145 3 -27 8 -61 10 -75 10 -56
18 -255 18 -410 0 -271 -25 -533 -73 -755 -10 -49 -21 -101 -23 -115 -13 -67
-99 -367 -114 -393 -4 -7 -80 53 -163 130 -14 13 -68 57 -120 99 -52 41 -104
82 -114 91 -65 53 -341 254 -450 327 -549 369 -1124 666 -1746 901 -183 69
-496 175 -605 205 -38 10 -102 28 -140 39 -59 16 -282 74 -335 87 -67 15 -413
85 -445 89 -22 3 -47 8 -55 10 -8 2 -35 7 -60 11 -25 3 -54 8 -65 10 -261 39
-359 47 -530 47 -118 0 -336 -10 -385 -18 -14 -2 -80 -11 -147 -19 -430 -56
-813 -247 -1003 -501 -45 -61 -103 -180 -126 -260 -18 -64 -24 -218 -11 -318
30 -249 197 -460 477 -604 66 -34 135 -67 153 -72 17 -5 57 -19 88 -30 57 -20
130 -41 319 -91 106 -28 310 -65 410 -75 30 -3 75 -7 100 -10 25 -3 97 -7 161
-10 64 -3 125 -7 135 -9 11 -2 53 -7 94 -12 41 -4 77 -8 80 -9 3 -1 30 -5 60
-9 94 -13 112 -16 205 -33 75 -13 362 -74 415 -87 183 -47 415 -115 550 -162
98 -35 280 -102 305 -114 11 -5 49 -21 85 -36 36 -14 93 -39 128 -55 35 -16
66 -29 69 -29 30 0 642 -326 735 -391 14 -11 31 -19 37 -19 6 0 11 -4 11 -10
0 -5 7 -10 15 -10 8 0 15 -4 15 -10 0 -5 5 -10 12 -10 9 0 142 -84 158 -100 3
-3 32 -23 65 -45 86 -57 295 -216 400 -304 49 -42 101 -85 114 -96 132 -110
455 -433 596 -595 273 -313 434 -528 693 -930 118 -184 340 -609 430 -827 102
-243 226 -587 258 -713 2 -8 15 -58 29 -110 14 -52 28 -103 30 -114 2 -10 13
-55 24 -100 46 -191 63 -269 76 -341 3 -16 7 -41 10 -55 5 -23 7 -38 20 -115
14 -81 24 -155 30 -205 3 -30 8 -66 10 -80 2 -14 6 -61 9 -105 3 -44 9 -116
12 -160 3 -44 7 -111 9 -150 6 -93 5 -579 0 -680 -9 -177 -23 -344 -40 -477
-3 -21 -7 -57 -10 -80 -7 -54 -15 -114 -21 -153 -3 -16 -7 -41 -9 -55 -5 -34
-16 -98 -21 -124 -2 -11 -6 -32 -9 -46 -16 -90 -81 -373 -109 -480 -62 -236
-181 -581 -281 -815 -84 -197 -250 -525 -357 -708 -23 -39 -49 -84 -58 -99
-69 -125 -251 -397 -390 -583 -198 -266 -405 -506 -641 -745 -254 -255 -424
-403 -698 -607 -91 -68 -170 -127 -176 -131 -68 -53 -468 -301 -605 -375 -72
-39 -398 -203 -436 -219 -21 -10 -73 -33 -114 -52 -139 -63 -404 -164 -580
-222 -96 -31 -184 -60 -195 -64 -81 -30 -512 -138 -660 -166 -49 -9 -99 -18
-110 -20 -11 -3 -36 -7 -55 -10 -19 -3 -44 -7 -55 -9 -97 -16 -107 -17 -210
-30 -27 -4 -61 -8 -75 -11 -14 -2 -61 -6 -105 -10 -44 -3 -90 -7 -102 -9 -162
-26 -925 -26 -1128 0 -16 2 -64 6 -105 10 -41 3 -88 8 -105 10 -16 2 -52 7
-80 10 -119 14 -294 41 -450 71 -96 17 -362 79 -475 109 -171 46 -455 137
-600 192 -144 55 -196 75 -225 88 -16 7 -79 34 -140 60 -135 58 -468 224 -589
294 -49 28 -90 51 -92 51 -5 0 -265 161 -354 220 -106 70 -277 192 -360 257
-30 24 -59 47 -65 51 -58 45 -163 129 -174 140 -73 71 -206 144 -308 170 -69
17 -187 21 -240 8 -13 -3 -31 -8 -40 -10 -10 -2 -43 -15 -73 -28 -130 -58
-234 -177 -279 -319 -49 -153 -17 -339 82 -484 26 -37 184 -195 252 -252 28
-23 97 -81 155 -129 154 -129 421 -326 620 -458 96 -64 180 -121 187 -126 7
-6 14 -10 17 -10 2 0 41 -23 86 -51 402 -249 1007 -537 1455 -694 28 -9 59
-21 70 -25 63 -25 387 -125 505 -157 228 -61 630 -149 765 -168 22 -3 51 -7
65 -10 14 -3 39 -7 55 -9 17 -2 77 -11 135 -20 58 -8 132 -18 165 -21 33 -3
76 -8 95 -10 19 -3 62 -7 95 -10 33 -3 80 -8 105 -10 222 -22 737 -33 980 -21
117 6 289 17 332 21 24 2 75 6 113 10 39 3 81 8 95 10 14 2 52 7 85 10 33 3
105 13 160 21 55 9 116 17 135 20 19 2 46 6 60 9 46 10 75 15 110 21 19 3 42
7 50 9 8 2 31 7 50 10 19 3 77 15 129 26 51 11 101 22 110 24 9 2 97 24 196
50 99 25 187 48 195 50 297 74 887 293 1265 470 678 317 1413 793 1885 1220
130 118 164 150 249 230 81 78 268 266 357 360 96 101 333 378 419 489 17 22
39 51 51 65 34 42 196 261 245 331 126 179 399 607 399 624 0 2 17 33 38 67
44 74 123 221 210 394 297 591 527 1263 666 1940 44 218 71 375 96 565 6 47
13 101 15 120 3 19 8 62 11 95 3 33 7 74 9 90 2 17 6 66 10 110 3 44 8 100 10
125 9 97 18 385 18 575 0 184 -11 537 -18 574 -1 9 -6 61 -10 116 -3 55 -8
114 -10 130 -3 17 -10 77 -16 135 -6 58 -13 114 -14 125 -16 125 -17 128 -35
235 -5 30 -11 71 -14 90 -5 33 -39 216 -50 270 -3 14 -11 50 -17 80 -6 30 -24
111 -41 179 -17 68 -31 128 -32 135 -3 15 -24 91 -41 151 -8 28 -26 88 -39
135 -28 99 -113 366 -126 395 -5 11 -20 52 -34 90 -116 324 -318 775 -477
1061 -67 122 -184 322 -240 413 -33 51 -59 95 -59 97 0 3 -5 10 -10 17 -6 7
-54 77 -107 157 -157 236 -408 571 -569 760 -35 41 -178 205 -184 210 -3 3
-49 53 -103 112 l-99 107 69 138 c94 189 163 347 199 458 7 22 25 74 39 115
58 163 139 474 169 655 25 150 34 211 51 373 12 113 18 241 19 437 0 187 -10
460 -18 475 -2 3 -6 37 -10 75 -4 39 -8 81 -11 95 -2 14 -6 45 -9 70 -3 25 -8
56 -11 70 -3 14 -8 41 -11 60 -5 29 -20 108 -39 195 -3 11 -7 29 -9 40 -50
230 -191 647 -276 815 -66 131 -191 219 -331 236 -30 3 -56 7 -59 8 -3 1 -33
-1 -67 -5z"/>
</g>
</svg>
