<?xml version="1.0" encoding="utf-8"?>
<!-- Generator: Adobe Illustrator 26.0.2, SVG Export Plug-In . SVG Version: 6.00 Build 0)  -->
<svg version="1.1" id="Layer_1" xmlns="http://www.w3.org/2000/svg" xmlns:xlink="http://www.w3.org/1999/xlink" x="0px" y="0px"
	 viewBox="0 0 80 1080" style="enable-background:new 0 0 80 1080;" xml:space="preserve">
<style type="text/css">
	.st0{fill:#FF9C9C;}
</style>
<g>
	<circle class="st0" cx="15" cy="16" r="12"/>
</g>
<g>
	<circle class="st0" cx="34" cy="1045" r="30"/>
</g>
<g>
	<circle class="st0" cx="62" cy="1000" r="15"/>
</g>
<g>
	<circle class="st0" cx="25" cy="988" r="18"/>
</g>
<g>
	<circle class="st0" cx="13" cy="956" r="11"/>
</g>
<g>
	<circle class="st0" cx="9.5" cy="1013.5" r="7.5"/>
</g>
<g>
	<circle class="st0" cx="42.5" cy="950.5" r="12.5"/>
</g>
<g>
	<circle class="st0" cx="69" cy="964" r="10"/>
</g>
<g>
	<circle class="st0" cx="51" cy="975" r="5"/>
</g>
<g>
	<circle class="st0" cx="65.5" cy="944.5" r="2.5"/>
</g>
<g>
	<circle class="st0" cx="72" cy="1029" r="7"/>
</g>
<g>
	<circle class="st0" cx="69" cy="1070" r="9"/>
</g>
<g>
	<circle class="st0" cx="7" cy="931" r="5"/>
</g>
<g>
	<circle class="st0" cx="19.5" cy="937.5" r="3.5"/>
</g>
<g>
	<circle class="st0" cx="68.5" cy="927.5" r="10.5"/>
</g>
<g>
	<circle class="st0" cx="34" cy="915" r="19"/>
</g>
<g>
	<circle class="st0" cx="63.5" cy="902.5" r="6.5"/>
</g>
<g>
	<circle class="st0" cx="54" cy="868" r="23"/>
</g>
<g>
	<circle class="st0" cx="15.5" cy="881.5" r="10.5"/>
</g>
<g>
	<circle class="st0" cx="7.5" cy="899.5" r="3.5"/>
</g>
<g>
	<circle class="st0" cx="18" cy="845" r="15"/>
</g>
<g>
	<circle class="st0" cx="31" cy="794" r="18"/>
</g>
<g>
	<circle class="st0" cx="66" cy="804" r="10"/>
</g>
<g>
	<circle class="st0" cx="9.5" cy="815.5" r="7.5"/>
</g>
<g>
	<circle class="st0" cx="47.5" cy="826.5" r="12.5"/>
</g>
<g>
	<circle class="st0" cx="15" cy="752" r="12"/>
</g>
<g>
	<circle class="st0" cx="73" cy="830" r="5"/>
</g>
<g>
	<circle class="st0" cx="3.5" cy="793.5" r="2.5"/>
</g>
<g>
	<circle class="st0" cx="8" cy="775" r="5"/>
</g>
<g>
	<circle class="st0" cx="57.5" cy="784.5" r="3.5"/>
</g>
<g>
	<circle class="st0" cx="65.5" cy="764.5" r="10.5"/>
</g>
<g>
	<circle class="st0" cx="50" cy="716" r="30"/>
</g>
<g>
	<circle class="st0" cx="16" cy="679" r="15"/>
</g>
<g>
	<circle class="st0" cx="49" cy="657" r="18"/>
</g>
<g>
	<circle class="st0" cx="68" cy="626" r="11"/>
</g>
<g>
	<circle class="st0" cx="71.5" cy="677.5" r="7.5"/>
</g>
<g>
	<circle class="st0" cx="38.5" cy="621.5" r="12.5"/>
</g>
<g>
	<circle class="st0" cx="11" cy="635" r="10"/>
</g>
<g>
	<circle class="st0" cx="23" cy="652" r="5"/>
</g>
<g>
	<circle class="st0" cx="16.5" cy="616.5" r="2.5"/>
</g>
<g>
	<circle class="st0" cx="9" cy="721" r="7"/>
</g>
<g>
	<circle class="st0" cx="36" cy="765" r="7"/>
</g>
<g>
	<circle class="st0" cx="72" cy="602" r="5"/>
</g>
<g>
	<circle class="st0" cx="58.5" cy="607.5" r="3.5"/>
</g>
<g>
	<circle class="st0" cx="12.5" cy="598.5" r="10.5"/>
</g>
<g>
	<circle class="st0" cx="47" cy="583" r="19"/>
</g>
<g>
	<circle class="st0" cx="17.5" cy="575.5" r="6.5"/>
</g>
<g>
	<circle class="st0" cx="24" cy="540" r="23"/>
</g>
<g>
	<circle class="st0" cx="65.5" cy="552.5" r="10.5"/>
</g>
<g>
	<circle class="st0" cx="73.5" cy="576.5" r="3.5"/>
</g>
<g>
	<circle class="st0" cx="63" cy="522" r="15"/>
</g>
<g>
	<circle class="st0" cx="50" cy="464" r="18"/>
</g>
<g>
	<circle class="st0" cx="13" cy="478" r="10"/>
</g>
<g>
	<circle class="st0" cx="66.5" cy="491.5" r="7.5"/>
</g>
<g>
	<circle class="st0" cx="35.5" cy="499.5" r="12.5"/>
</g>
<g>
	<circle class="st0" cx="9" cy="415" r="6"/>
</g>
<g>
	<circle class="st0" cx="8" cy="507" r="5"/>
</g>
<g>
	<circle class="st0" cx="77.5" cy="470.5" r="2.5"/>
</g>
<g>
	<circle class="st0" cx="75" cy="453" r="5"/>
</g>
<g>
	<circle class="st0" cx="23.5" cy="457.5" r="3.5"/>
</g>
<g>
	<circle class="st0" cx="11.5" cy="439.5" r="10.5"/>
</g>
<g>
	<circle class="st0" cx="38" cy="423" r="14"/>
</g>
<g>
	<circle class="st0" cx="66.5" cy="431.5" r="10.5"/>
</g>
<g>
	<circle class="st0" cx="34" cy="375" r="30"/>
</g>
<g>
	<circle class="st0" cx="62" cy="330" r="15"/>
</g>
<g>
	<circle class="st0" cx="25" cy="318" r="18"/>
</g>
<g>
	<circle class="st0" cx="13" cy="286" r="11"/>
</g>
<g>
	<circle class="st0" cx="9.5" cy="343.5" r="7.5"/>
</g>
<g>
	<circle class="st0" cx="42.5" cy="280.5" r="12.5"/>
</g>
<g>
	<circle class="st0" cx="69" cy="294" r="10"/>
</g>
<g>
	<circle class="st0" cx="51" cy="305" r="5"/>
</g>
<g>
	<circle class="st0" cx="65.5" cy="274.5" r="2.5"/>
</g>
<g>
	<circle class="st0" cx="72" cy="359" r="7"/>
</g>
<g>
	<circle class="st0" cx="70" cy="405" r="9"/>
</g>
<g>
	<circle class="st0" cx="7" cy="261" r="5"/>
</g>
<g>
	<circle class="st0" cx="19.5" cy="267.5" r="3.5"/>
</g>
<g>
	<circle class="st0" cx="68.5" cy="257.5" r="10.5"/>
</g>
<g>
	<circle class="st0" cx="34" cy="245" r="19"/>
</g>
<g>
	<circle class="st0" cx="63.5" cy="232.5" r="6.5"/>
</g>
<g>
	<circle class="st0" cx="54" cy="198" r="23"/>
</g>
<g>
	<circle class="st0" cx="15.5" cy="211.5" r="10.5"/>
</g>
<g>
	<circle class="st0" cx="7.5" cy="229.5" r="3.5"/>
</g>
<g>
	<circle class="st0" cx="18" cy="175" r="15"/>
</g>
<g>
	<circle class="st0" cx="31" cy="124" r="18"/>
</g>
<g>
	<circle class="st0" cx="66" cy="134" r="10"/>
</g>
<g>
	<circle class="st0" cx="9.5" cy="145.5" r="7.5"/>
</g>
<g>
	<circle class="st0" cx="47.5" cy="156.5" r="12.5"/>
</g>
<g>
	<circle class="st0" cx="15" cy="82" r="12"/>
</g>
<g>
	<circle class="st0" cx="73" cy="160" r="5"/>
</g>
<g>
	<circle class="st0" cx="3.5" cy="123.5" r="2.5"/>
</g>
<g>
	<circle class="st0" cx="8" cy="105" r="5"/>
</g>
<g>
	<circle class="st0" cx="57.5" cy="114.5" r="3.5"/>
</g>
<g>
	<circle class="st0" cx="65.5" cy="94.5" r="10.5"/>
</g>
<g>
	<circle class="st0" cx="50" cy="50" r="30"/>
</g>
<g>
	<circle class="st0" cx="9" cy="51" r="7"/>
</g>
<g>
	<circle class="st0" cx="36" cy="95" r="7"/>
</g>
<g>
	<circle class="st0" cx="37.5" cy="8.5" r="3.5"/>
</g>
<g>
	<circle class="st0" cx="66.5" cy="10.5" r="8.5"/>
</g>
</svg>
