<?xml version="1.0" encoding="utf-8"?>
<!-- Generator: Adobe Illustrator 26.0.2, SVG Export Plug-In . SVG Version: 6.00 Build 0)  -->
<svg version="1.1" id="Layer_1" xmlns="http://www.w3.org/2000/svg" xmlns:xlink="http://www.w3.org/1999/xlink" x="0px" y="0px"
	 viewBox="0 0 80 1080" style="enable-background:new 0 0 80 1080;" xml:space="preserve">
<style type="text/css">
	.st0{fill:#FF9C9C;}
</style>
<g>
	<circle class="st0" cx="15" cy="16" r="12"/>
</g>
<g>
	<circle class="st0" cx="34" cy="1045" r="30"/>
</g>
<g>
	<circle class="st0" cx="57.35" cy="992.88" r="15"/>
</g>
<g>
	<circle class="st0" cx="22" cy="958.76" r="18"/>
</g>
<g>
	<circle class="st0" cx="65.5" cy="841.97" r="11"/>
</g>
<g>
	<circle class="st0" cx="35" cy="873.5" r="12.5"/>
</g>
<g>
	<circle class="st0" cx="12" cy="911.48" r="10"/>
</g>
<g>
	<circle class="st0" cx="57.35" cy="921.48" r="19.27"/>
</g>
<g>
	<circle class="st0" cx="24" cy="822.97" r="19"/>
</g>
<g>
	<circle class="st0" cx="13" cy="773.6" r="6.5"/>
</g>
<g>
	<circle class="st0" cx="55.35" cy="773.6" r="23"/>
</g>
<g>
	<circle class="st0" cx="53" cy="701.94" r="18"/>
</g>
<g>
	<circle class="st0" cx="16" cy="732.47" r="12.5"/>
</g>
<g>
	<circle class="st0" cx="49" cy="626.94" r="30"/>
</g>
<g>
	<circle class="st0" cx="23" cy="571.88" r="18"/>
</g>
<g>
	<circle class="st0" cx="13" cy="674.38" r="10"/>
</g>
<g>
	<circle class="st0" cx="68" cy="470" r="10.5"/>
</g>
<g>
	<circle class="st0" cx="27" cy="495.75" r="23"/>
</g>
<g>
	<circle class="st0" cx="64" cy="539.75" r="15"/>
</g>
<g>
	<circle class="st0" cx="48" cy="426.5" r="18"/>
</g>
<g>
	<circle class="st0" cx="16" cy="447.5" r="7.5"/>
</g>
<g>
	<circle class="st0" cx="15" cy="387.75" r="14"/>
</g>
<g>
	<circle class="st0" cx="34" cy="336.5" r="30"/>
</g>
<g>
	<circle class="st0" cx="56" cy="273.38" r="23"/>
</g>
<g>
	<circle class="st0" cx="13.19" cy="280.75" r="7.5"/>
</g>
<g>
	<circle class="st0" cx="61" cy="224.75" r="7"/>
</g>
<g>
	<circle class="st0" cx="68" cy="384.5" r="9"/>
</g>
<g>
	<circle class="st0" cx="20.69" cy="222.44" r="19"/>
</g>
<g>
	<circle class="st0" cx="33" cy="159.93" r="23"/>
</g>
<g>
	<circle class="st0" cx="68" cy="195.66" r="10.5"/>
</g>
<g>
	<circle class="st0" cx="61" cy="120.51" r="15"/>
</g>
<g>
	<circle class="st0" cx="20.69" cy="105.51" r="18"/>
</g>
<g>
	<circle class="st0" cx="48" cy="50.42" r="30"/>
</g>
</svg>
